<svg fill="none" xmlns="http://www.w3.org/2000/svg" viewBox="0 0 633 400"><path d="M206.545 374.882h10.507c.021 3.907-.635 7.242-1.966 10.006-1.311 2.739-3.165 4.812-5.561 6.217-2.397 1.406-5.203 2.109-8.419 2.109-2.601 0-4.905-.524-6.913-1.573-2.007-1.048-3.697-2.572-5.069-4.574-1.373-2.001-2.407-4.419-3.104-7.253-.696-2.859-1.044-6.099-1.044-9.72v-7.254c0-3.597.369-6.825 1.106-9.684.758-2.858 1.823-5.288 3.195-7.289 1.393-2.001 3.073-3.526 5.039-4.574 1.987-1.048 4.199-1.572 6.637-1.572 3.42 0 6.308.75 8.664 2.251 2.376 1.477 4.199 3.621 5.469 6.432 1.27 2.787 1.946 6.134 2.028 10.041h-10.508c.102-2.263-.02-4.038-.369-5.324-.348-1.311-.962-2.228-1.843-2.752-.86-.548-2.008-.822-3.441-.822-.984 0-1.813.227-2.489.679-.676.453-1.219 1.203-1.628 2.251-.41 1.025-.707 2.383-.891 4.074-.185 1.691-.277 3.764-.277 6.218v7.325c0 2.501.072 4.598.215 6.289.143 1.692.41 3.061.799 4.109.41 1.025.963 1.763 1.659 2.216.717.453 1.639.679 2.765.679 1.188 0 2.202-.226 3.042-.679.84-.476 1.475-1.322 1.905-2.537.43-1.239.594-3.002.492-5.289ZM254.229 362.59v7.861c0 3.74-.399 7.028-1.198 9.863-.799 2.835-1.936 5.217-3.41 7.147-1.475 1.905-3.227 3.347-5.254 4.323-2.008.953-4.24 1.43-6.698 1.43-2.479 0-4.732-.477-6.76-1.43-2.028-.976-3.779-2.418-5.254-4.323-1.474-1.93-2.611-4.312-3.41-7.147-.799-2.835-1.198-6.123-1.198-9.863v-7.861c0-3.74.399-7.039 1.198-9.898.799-2.859 1.925-5.241 3.38-7.147 1.474-1.906 3.226-3.347 5.253-4.324 2.028-.976 4.281-1.465 6.76-1.465 2.458 0 4.701.489 6.729 1.465 2.048.977 3.799 2.418 5.254 4.324 1.454 1.906 2.58 4.288 3.379 7.147.82 2.859 1.229 6.158 1.229 9.898Zm-10.661 7.861v-7.932c0-2.335-.123-4.324-.369-5.968-.246-1.644-.614-2.978-1.106-4.002-.492-1.024-1.106-1.775-1.843-2.251-.738-.477-1.608-.715-2.612-.715-1.045 0-1.936.238-2.673.715-.738.476-1.352 1.227-1.844 2.251-.471 1.024-.819 2.358-1.044 4.002-.226 1.644-.338 3.633-.338 5.968v7.932c0 2.311.112 4.288.338 5.932.225 1.62.573 2.954 1.044 4.002.492 1.048 1.117 1.823 1.875 2.323.757.476 1.648.715 2.673.715.983 0 1.843-.239 2.581-.715.757-.5 1.372-1.275 1.843-2.323.492-1.048.86-2.382 1.106-4.002.246-1.644.369-3.621.369-5.932ZM291.898 340.471v52.028h-10.477l-11.215-32.375v32.375h-10.508v-52.028h10.508l11.215 32.375v-32.375h10.477ZM316.754 378.67c0-.81-.072-1.536-.215-2.18a4.829 4.829 0 0 0-.768-1.858c-.369-.572-.932-1.143-1.69-1.715-.758-.596-1.772-1.215-3.042-1.858a48.554 48.554 0 0 1-4.701-2.573 22.131 22.131 0 0 1-4.148-3.395c-1.208-1.31-2.181-2.835-2.918-4.574-.738-1.762-1.106-3.811-1.106-6.146 0-2.239.368-4.252 1.106-6.039.757-1.81 1.792-3.347 3.103-4.609 1.331-1.287 2.898-2.263 4.701-2.93 1.802-.691 3.769-1.037 5.899-1.037 2.826 0 5.315.667 7.466 2.001 2.171 1.311 3.861 3.181 5.069 5.611 1.229 2.406 1.844 5.252 1.844 8.54h-10.477c0-1.31-.144-2.466-.43-3.466-.287-1.001-.738-1.787-1.352-2.359-.594-.571-1.383-.857-2.366-.857-.881 0-1.628.238-2.243.714-.594.477-1.045 1.12-1.352 1.93-.307.786-.461 1.656-.461 2.609 0 .786.154 1.5.461 2.144a6.912 6.912 0 0 0 1.26 1.75 14.477 14.477 0 0 0 1.905 1.573c.737.5 1.526.988 2.366 1.465 2.027.881 3.82 1.87 5.376 2.966 1.578 1.072 2.899 2.299 3.964 3.68 1.065 1.358 1.864 2.907 2.396 4.646.554 1.739.83 3.704.83 5.896 0 2.334-.328 4.407-.983 6.217-.635 1.811-1.567 3.347-2.796 4.61-1.229 1.239-2.714 2.18-4.455 2.823-1.721.643-3.667.965-5.838.965-1.987 0-3.943-.334-5.868-1.001a15.677 15.677 0 0 1-5.193-3.144c-1.536-1.43-2.765-3.252-3.687-5.468-.921-2.239-1.382-4.895-1.382-7.968h10.569c0 1.524.102 2.811.307 3.859.205 1.048.523 1.894.953 2.537a3.946 3.946 0 0 0 1.72 1.358c.697.262 1.557.393 2.581.393.942 0 1.67-.226 2.182-.679.532-.476.901-1.096 1.106-1.858a10.18 10.18 0 0 0 .307-2.573ZM352.149 340.471v52.028H341.61v-52.028h10.539Zm10.846 0v9.684h-31.923v-9.684h31.923ZM367.573 340.471h15.3c2.991 0 5.582.596 7.774 1.787 2.191 1.191 3.871 2.954 5.039 5.288 1.188 2.335 1.782 5.217 1.782 8.648 0 2.978-.328 5.467-.984 7.468-.635 2.001-1.536 3.657-2.703 4.967a14.956 14.956 0 0 1-4.117 3.18l-3.411 2.323H374.24l-.062-9.684h8.45c.962 0 1.761-.286 2.396-.857.635-.572 1.106-1.382 1.413-2.43.328-1.072.492-2.347.492-3.824 0-1.501-.154-2.787-.461-3.859-.307-1.072-.758-1.894-1.352-2.466-.573-.571-1.321-.857-2.243-.857h-4.793v42.344h-10.507v-52.028Zm19.817 52.028-7.927-23.012 11.122-.072 8.081 22.548v.536H387.39ZM422.969 340.471h10.539v35.412c0 4.05-.625 7.361-1.875 9.934-1.249 2.549-3 4.419-5.253 5.61-2.254 1.191-4.916 1.787-7.989 1.787-3.052 0-5.715-.596-7.988-1.787-2.274-1.191-4.056-3.061-5.346-5.61-1.27-2.573-1.905-5.884-1.905-9.934v-35.412h10.569v35.412c0 2.144.164 3.776.492 4.895.348 1.096.87 1.835 1.567 2.216.696.381 1.566.572 2.611.572 1.065 0 1.936-.191 2.612-.572.676-.381 1.167-1.12 1.474-2.216.328-1.119.492-2.751.492-4.895v-35.412ZM460.453 374.882h10.508c.021 3.907-.635 7.242-1.966 10.006-1.311 2.739-3.165 4.812-5.562 6.217-2.396 1.406-5.202 2.109-8.418 2.109-2.601 0-4.906-.524-6.913-1.573-2.007-1.048-3.697-2.572-5.07-4.574-1.372-2.001-2.406-4.419-3.103-7.253-.696-2.859-1.045-6.099-1.045-9.72v-7.254c0-3.597.369-6.825 1.107-9.684.757-2.858 1.823-5.288 3.195-7.289 1.393-2.001 3.072-3.526 5.039-4.574 1.987-1.048 4.199-1.572 6.636-1.572 3.421 0 6.309.75 8.665 2.251 2.376 1.477 4.199 3.621 5.469 6.432 1.27 2.787 1.946 6.134 2.027 10.041h-10.507c.102-2.263-.021-4.038-.369-5.324-.348-1.311-.963-2.228-1.844-2.752-.86-.548-2.007-.822-3.441-.822-.983 0-1.812.227-2.488.679-.676.453-1.219 1.203-1.629 2.251-.409 1.025-.706 2.383-.891 4.074-.184 1.691-.276 3.764-.276 6.218v7.325c0 2.501.071 4.598.215 6.289.143 1.692.409 3.061.799 4.109.409 1.025.962 1.763 1.659 2.216.717.453 1.638.679 2.765.679 1.188 0 2.202-.226 3.042-.679.839-.476 1.474-1.322 1.905-2.537.43-1.239.594-3.002.491-5.289ZM494.22 340.471v52.028h-10.539v-52.028h10.539Zm10.845 0v9.684h-31.923v-9.684h31.923ZM520.612 340.471v52.028h-10.477v-52.028h10.477ZM559.755 362.59v7.861c0 3.74-.399 7.028-1.198 9.863-.799 2.835-1.936 5.217-3.41 7.147-1.475 1.905-3.226 3.347-5.254 4.323-2.008.953-4.24 1.43-6.698 1.43-2.479 0-4.732-.477-6.76-1.43-2.028-.976-3.779-2.418-5.254-4.323-1.474-1.93-2.611-4.312-3.41-7.147-.799-2.835-1.198-6.123-1.198-9.863v-7.861c0-3.74.399-7.039 1.198-9.898.799-2.859 1.925-5.241 3.38-7.147 1.474-1.906 3.226-3.347 5.254-4.324 2.027-.976 4.281-1.465 6.759-1.465 2.458 0 4.701.489 6.729 1.465 2.048.977 3.799 2.418 5.254 4.324 1.454 1.906 2.58 4.288 3.379 7.147.82 2.859 1.229 6.158 1.229 9.898Zm-10.661 7.861v-7.932c0-2.335-.123-4.324-.369-5.968-.246-1.644-.614-2.978-1.106-4.002-.492-1.024-1.106-1.775-1.843-2.251-.738-.477-1.608-.715-2.612-.715-1.045 0-1.936.238-2.673.715-.737.476-1.352 1.227-1.844 2.251-.471 1.024-.819 2.358-1.044 4.002-.225 1.644-.338 3.633-.338 5.968v7.932c0 2.311.113 4.288.338 5.932.225 1.62.573 2.954 1.044 4.002.492 1.048 1.117 1.823 1.875 2.323.758.476 1.649.715 2.673.715.983 0 1.843-.239 2.581-.715.757-.5 1.372-1.275 1.843-2.323.492-1.048.86-2.382 1.106-4.002.246-1.644.369-3.621.369-5.932ZM597.424 340.471v52.028h-10.477l-11.215-32.375v32.375h-10.508v-52.028h10.508l11.215 32.375v-32.375h10.477ZM622.28 378.67c0-.81-.072-1.536-.215-2.18a4.829 4.829 0 0 0-.768-1.858c-.369-.572-.932-1.143-1.69-1.715-.758-.596-1.772-1.215-3.042-1.858a48.672 48.672 0 0 1-4.701-2.573 22.131 22.131 0 0 1-4.148-3.395c-1.208-1.31-2.181-2.835-2.918-4.574-.738-1.762-1.106-3.811-1.106-6.146 0-2.239.368-4.252 1.106-6.039.758-1.81 1.792-3.347 3.103-4.609 1.331-1.287 2.898-2.263 4.701-2.93 1.802-.691 3.769-1.037 5.899-1.037 2.827 0 5.315.667 7.466 2.001 2.171 1.311 3.861 3.181 5.07 5.611 1.229 2.406 1.843 5.252 1.843 8.54h-10.477c0-1.31-.144-2.466-.43-3.466-.287-1.001-.738-1.787-1.352-2.359-.594-.571-1.383-.857-2.366-.857-.881 0-1.628.238-2.243.714-.594.477-1.045 1.12-1.352 1.93-.307.786-.461 1.656-.461 2.609 0 .786.154 1.5.461 2.144a6.912 6.912 0 0 0 1.26 1.75 14.477 14.477 0 0 0 1.905 1.573c.737.5 1.526.988 2.366 1.465 2.028.881 3.82 1.87 5.377 2.966 1.577 1.072 2.898 2.299 3.963 3.68 1.065 1.358 1.864 2.907 2.397 4.646.553 1.739.829 3.704.829 5.896 0 2.334-.328 4.407-.983 6.217-.635 1.811-1.567 3.347-2.796 4.61-1.229 1.239-2.714 2.18-4.455 2.823-1.721.643-3.667.965-5.838.965-1.987 0-3.943-.334-5.868-1.001a15.677 15.677 0 0 1-5.193-3.144c-1.536-1.43-2.765-3.252-3.687-5.468-.921-2.239-1.382-4.895-1.382-7.968h10.569c0 1.524.102 2.811.307 3.859.205 1.048.523 1.894.953 2.537a3.946 3.946 0 0 0 1.72 1.358c.697.262 1.557.393 2.581.393.942 0 1.67-.226 2.182-.679.532-.476.901-1.096 1.106-1.858a10.18 10.18 0 0 0 .307-2.573Z" fill="#000"/><g clip-path="url(#a)"><path d="m442.631 142.498 103.546 152.849H445.392L343.227 145.258 439.525 0h97.678l-94.572 142.498ZM.146 399.202v-37.609c0-15.181 1.035-30.708 0-45.544 10.7-.69 21.054-3.45 30.718-7.591 28.648-13.111 46.94-41.403 55.57-70.731 1.035-3.105 1.725-6.556 2.416-9.661 4.142-20.357 2.761-41.404 2.761-62.106V0h93.191v173.551c0 13.111.345 26.222 0 39.334-1.035 41.403-14.496 78.667-39.692 111.445-7.594 10.006-15.877 18.976-24.851 27.602-.691.69-1.036 1.035-1.726 1.38-7.248 6.556-14.842 12.422-23.125 17.597-14.152 8.971-30.029 15.526-45.906 20.357-8.283 2.415-16.567 4.485-24.85 5.865-4.143.691-8.63 1.381-12.771 2.071H.146ZM177.554 93.504H.146V0h177.408m79.385 93.504V0h93.882l-62.818 93.504h-31.064Zm16.567 90.743c2.071-2.07 4.487-3.45 7.939-3.45 2.761 0 5.177 1.035 7.248 3.105 2.071 2.07 2.761 4.485 2.761 7.246 0 3.105-.69 5.52-2.071 7.59-1.38 2.07-3.451 3.796-6.212 5.866l-6.213 3.795c-4.487-6.21-6.903-11.386-6.903-15.526.345-3.451 1.38-6.211 3.451-8.626Zm-6.212 82.117c-2.762-3.105-4.142-6.9-4.142-11.386 0-5.52 1.726-10.351 5.177-14.491l.69-.69L293.18 267.4c-4.832 2.415-10.009 3.795-15.532 3.795-4.142 0-7.593-1.725-10.354-4.831Zm-12.426-43.819c-9.319 6.556-15.187 12.422-18.638 17.597-3.452 5.175-4.832 10.696-4.832 16.907 0 11.386 4.142 20.356 12.08 27.602 7.939 6.901 18.638 10.351 31.754 10.351 6.903 0 12.771-.69 18.293-2.07 5.523-1.725 10.7-3.795 15.877-6.901l6.213 7.246h34.515l-20.364-23.462c8.284-11.041 12.426-25.533 12.426-43.474H315.96c0 7.935-1.726 15.526-5.177 22.082l-20.709-23.807 6.903-4.831c12.77-8.971 18.983-18.977 18.983-30.363 0-9.315-3.451-16.906-10.009-23.117-6.558-6.21-14.842-9.316-25.196-9.316-11.39 0-20.364 3.451-27.613 10.006-7.248 6.556-10.699 15.527-10.699 26.223 0 4.83 1.035 9.661 3.106 14.491 2.071 4.83 6.213 9.661 9.319 14.836Z" fill="#000"/></g><defs><clipPath id="a"><path fill="#fff" transform="translate(.146)" d="M0 0h545.709v400H0z"/></clipPath></defs></svg>