<svg xmlns="http://www.w3.org/2000/svg" viewBox="0 0 158.2 115.96" style="enable-background:new 0 0 158.2 115.96" xml:space="preserve"><path d="M150.69 108.68c.83.28 1.46.54 1.88.77.42.23.7.47.85.7.14.24.21.53.21.87 0 .4-.17.74-.5 1.01-.33.28-.85.41-1.54.41-.67 0-1.22-.08-1.64-.23-.42-.16-.74-.42-.95-.8-.21-.38-.32-.89-.32-1.54h-4.5c0 1.38.35 2.52 1.05 3.43.7.91 1.62 1.58 2.74 2.01 1.12.43 2.33.64 3.62.64 1.32 0 2.47-.19 3.44-.58.98-.38 1.73-.95 2.27-1.69s.8-1.64.8-2.7c0-1.44-.49-2.62-1.48-3.55-.99-.93-2.44-1.7-4.37-2.33-1.05-.34-1.83-.67-2.33-.98-.51-.31-.76-.69-.76-1.13 0-.26.09-.5.26-.72.18-.22.44-.4.78-.53.34-.14.75-.2 1.24-.2.72 0 1.27.17 1.65.52.38.35.57.82.57 1.41h4.46c0-1.14-.28-2.11-.85-2.93-.56-.82-1.34-1.44-2.33-1.88s-2.12-.65-3.4-.65c-1.3 0-2.47.2-3.51.6-1.04.4-1.85.97-2.44 1.72-.59.74-.88 1.62-.88 2.63 0 1.02.27 1.9.82 2.63.55.73 1.25 1.33 2.11 1.79.84.46 1.86.9 3.05 1.3m-9.99-6.81v-3.62h-12.21v17.47h12.16v-3.61h-7.69v-3.6h6.49v-3.48h-6.49v-3.15h7.74zm-17.16-3.62h-5.9L114 109.84l-3.63-11.59h-5.89v17.47h4.49v-3.3l-.44-8.88 4.02 12.18h2.93l4.02-12.18-.43 8.88v3.3h4.49V98.25zm-28.06 8.4v.66c0 1.59-.27 2.82-.82 3.69-.54.87-1.32 1.31-2.33 1.31-1.06 0-1.85-.43-2.38-1.29-.53-.86-.8-2.1-.8-3.71v-.66c0-3.32 1.05-4.98 3.15-4.98 1.01 0 1.8.43 2.35 1.28.55.85.83 2.08.83 3.7m4.57.66v-.64c0-1.75-.33-3.28-.99-4.59-.66-1.31-1.58-2.31-2.75-3.02-1.17-.7-2.51-1.06-4-1.06-1.51 0-2.85.35-4.02 1.06-1.17.7-2.08 1.71-2.73 3.02-.65 1.31-.98 2.84-.98 4.59v.64c0 1.75.33 3.28.98 4.59.65 1.31 1.56 2.31 2.74 3.01 1.17.7 2.52 1.05 4.04 1.05 1.49 0 2.83-.35 3.99-1.05 1.17-.7 2.08-1.7 2.74-3.01.65-1.31.98-2.84.98-4.59m-24.36-9.06v6.78h-5.83v-6.78h-4.47v17.47h4.47v-7.08h5.83v7.08h4.46V98.25h-4.46zm52.53-56.96 29.98 44.26h-29.19L99.45 42.08 127.26 0h28.25l-27.29 41.29zM.02 115.72v-10.87c0-4.37.27-8.88-.02-13.21 3.06-.25 6.1-.97 8.9-2.25 8.29-3.79 13.58-12.03 16.15-20.46.28-.93.52-1.87.72-2.82 1.21-5.89.82-12.05.82-18.03V0h27V50.28c0 3.81.08 7.63-.03 11.44-.32 12.01-4.25 22.75-11.49 32.31a61.532 61.532 0 0 1-7.22 8c-.16.15-.33.3-.49.45a47.179 47.179 0 0 1-6.71 5.06c-4.14 2.58-8.66 4.53-13.34 5.91-2.36.7-4.76 1.26-7.18 1.69-1.22.22-2.45.41-3.67.57H.02zm51.41-88.6H.02V0h51.41m22.96 27.08V0h27.15L83.42 27.11h-9.03m4.79 26.32c.57-.63 1.35-.95 2.35-.95.84 0 1.54.3 2.11.91.57.61.85 1.32.85 2.14 0 .87-.19 1.59-.56 2.16-.37.57-.97 1.12-1.79 1.66l-1.79 1.12c-1.35-1.78-2.03-3.29-2.03-4.54.01-1.04.29-1.87.86-2.5m-1.82 23.81c-.82-.91-1.23-2.01-1.23-3.31 0-1.57.51-2.97 1.52-4.22l.24-.16 7 7.96c-1.43.73-2.92 1.1-4.49 1.1-1.2-.01-2.22-.46-3.04-1.37m-3.52-12.69c-2.65 1.94-4.44 3.64-5.36 5.1-.92 1.46-1.38 3.09-1.38 4.89 0 3.29 1.16 5.95 3.47 7.97 2.32 2.02 5.4 3.03 9.24 3.03 1.96 0 3.72-.21 5.27-.64a18.52 18.52 0 0 0 4.58-1.98l1.82 2.06h10.04l-5.93-6.81c2.42-3.17 3.63-7.38 3.63-12.63h-7.56c0 2.33-.49 4.48-1.47 6.44l-5.98-6.86 2.03-1.42c3.65-2.56 5.48-5.5 5.48-8.82 0-2.65-.96-4.88-2.88-6.66-1.92-1.79-4.35-2.68-7.29-2.68-3.28 0-5.93.97-7.96 2.9-2.03 1.93-3.05 4.47-3.05 7.6 0 1.44.3 2.84.9 4.19.6 1.35 1.42 2.78 2.47 4.27l-.07.05z" /></svg>