<svg xmlns="http://www.w3.org/2000/svg" viewBox="0 0 158.2 116" xml:space="preserve"><path d="m128.2 41.3 30 44.3H129L99.4 42.1 127.3 0h28.3l-27.4 41.3zM0 115.7v-10.9c0-4.4.3-8.9 0-13.2 3.1-.2 6.1-1 8.9-2.2 8.3-3.8 13.6-12 16.1-20.5.3-.9.5-1.9.7-2.8 1.2-5.9.8-12 .8-18V0h27v50.3c0 3.8.1 7.6 0 11.4-.3 12-4.2 22.8-11.5 32.3-2.2 2.9-4.6 5.5-7.2 8-.2.2-.3.3-.5.4-2.1 1.9-4.3 3.6-6.7 5.1-4.1 2.6-8.7 4.5-13.3 5.9-2.4.7-4.8 1.3-7.2 1.7-1.2.2-2.5.4-3.7.6H0zm51.4-88.6H0V0h51.4m23 27.1V0h27.2L83.4 27.1h-9m4.8 26.3c.6-.6 1.3-1 2.3-1 .8 0 1.5.3 2.1.9s.8 1.3.8 2.1c0 .9-.2 1.6-.6 2.2-.4.6-1 1.1-1.8 1.7l-1.8 1.1c-1.3-1.8-2-3.3-2-4.5.1-1 .4-1.8 1-2.5m-1.8 23.8c-.8-.9-1.2-2-1.2-3.3 0-1.6.5-3 1.5-4.2l.2-.2 7 8c-1.4.7-2.9 1.1-4.5 1.1-1.2 0-2.2-.5-3-1.4m-3.6-12.7c-2.7 1.9-4.4 3.6-5.4 5.1S67 72.7 67 74.5c0 3.3 1.2 5.9 3.5 8 2.3 2 5.4 3 9.2 3 2 0 3.7-.2 5.3-.6 1.6-.5 3.1-1.1 4.6-2l1.8 2.1h10l-5.9-6.8c2.4-3.2 3.6-7.4 3.6-12.6h-7.6c0 2.3-.5 4.5-1.5 6.4l-6-6.9 2-1.4c3.7-2.6 5.5-5.5 5.5-8.8 0-2.7-1-4.9-2.9-6.7-1.9-1.8-4.3-2.7-7.3-2.7-3.3 0-5.9 1-8 2.9s-3.1 4.5-3.1 7.6c0 1.4.3 2.8.9 4.2s1.8 2.8 2.7 4.3z" fill="#ffa401"/></svg>