<?xml version="1.0" encoding="utf-8"?>
<!-- Generator: Adobe Illustrator 25.4.1, SVG Export Plug-In . SVG Version: 6.00 Build 0)  -->
<svg version="1.1" id="Layer_1" xmlns="http://www.w3.org/2000/svg" xmlns:xlink="http://www.w3.org/1999/xlink" x="0px" y="0px"
	 viewBox="0 0 158.2 116" style="enable-background:new 0 0 158.2 116;" xml:space="preserve">
<style type="text/css">
	.st0{fill:#FFA401;}
</style>
<path class="st0" d="M128.2,41.3l30,44.3H129L99.4,42.1L127.3,0h28.3L128.2,41.3L128.2,41.3z M0,115.7v-10.9c0-4.4,0.3-8.9,0-13.2
	c3.1-0.2,6.1-1,8.9-2.2c8.3-3.8,13.6-12,16.1-20.5c0.3-0.9,0.5-1.9,0.7-2.8c1.2-5.9,0.8-12,0.8-18V0h27v50.3c0,3.8,0.1,7.6,0,11.4
	c-0.3,12-4.2,22.8-11.5,32.3c-2.2,2.9-4.6,5.5-7.2,8c-0.2,0.2-0.3,0.3-0.5,0.4c-2.1,1.9-4.3,3.6-6.7,5.1c-4.1,2.6-8.7,4.5-13.3,5.9
	c-2.4,0.7-4.8,1.3-7.2,1.7c-1.2,0.2-2.5,0.4-3.7,0.6L0,115.7L0,115.7z M51.4,27.1H0V0h51.4 M74.4,27.1V0h27.2L83.4,27.1L74.4,27.1
	 M79.2,53.4c0.6-0.6,1.3-1,2.3-1c0.8,0,1.5,0.3,2.1,0.9s0.8,1.3,0.8,2.1c0,0.9-0.2,1.6-0.6,2.2c-0.4,0.6-1,1.1-1.8,1.7l-1.8,1.1
	c-1.3-1.8-2-3.3-2-4.5C78.3,54.9,78.6,54.1,79.2,53.4 M77.4,77.2c-0.8-0.9-1.2-2-1.2-3.3c0-1.6,0.5-3,1.5-4.2l0.2-0.2l7,8
	c-1.4,0.7-2.9,1.1-4.5,1.1C79.2,78.6,78.2,78.1,77.4,77.2 M73.8,64.5c-2.7,1.9-4.4,3.6-5.4,5.1s-1.4,3.1-1.4,4.9
	c0,3.3,1.2,5.9,3.5,8c2.3,2,5.4,3,9.2,3c2,0,3.7-0.2,5.3-0.6c1.6-0.5,3.1-1.1,4.6-2l1.8,2.1h10l-5.9-6.8c2.4-3.2,3.6-7.4,3.6-12.6
	h-7.6c0,2.3-0.5,4.5-1.5,6.4l-6-6.9l2-1.4c3.7-2.6,5.5-5.5,5.5-8.8c0-2.7-1-4.9-2.9-6.7c-1.9-1.8-4.3-2.7-7.3-2.7
	c-3.3,0-5.9,1-8,2.9s-3.1,4.5-3.1,7.6c0,1.4,0.3,2.8,0.9,4.2S72.9,63,73.8,64.5L73.8,64.5z"/>
</svg>
