<svg xmlns="http://www.w3.org/2000/svg" fill="none" viewBox="0 0 634 400"><path fill="#FFF" d="M206.81 374.882h10.508c.02 3.907-.635 7.242-1.967 10.006-1.311 2.739-3.164 4.812-5.561 6.217-2.396 1.406-5.202 2.109-8.418 2.109-2.602 0-4.906-.524-6.913-1.573-2.008-1.048-3.698-2.572-5.07-4.574-1.372-2.001-2.407-4.419-3.103-7.253-.697-2.859-1.045-6.099-1.045-9.72v-7.254c0-3.597.369-6.825 1.106-9.684.758-2.858 1.823-5.288 3.196-7.289 1.393-2.001 3.072-3.526 5.039-4.574 1.986-1.048 4.199-1.572 6.636-1.572 3.421 0 6.309.75 8.664 2.251 2.376 1.477 4.199 3.621 5.469 6.432 1.27 2.787 1.946 6.134 2.028 10.041h-10.508c.103-2.263-.02-4.038-.368-5.324-.349-1.311-.963-2.228-1.844-2.752-.86-.548-2.007-.822-3.441-.822-.983 0-1.813.227-2.489.679-.676.453-1.218 1.203-1.628 2.251-.41 1.025-.707 2.383-.891 4.074-.184 1.691-.277 3.764-.277 6.218v7.325c0 2.501.072 4.598.215 6.289.144 1.692.41 3.061.799 4.109.41 1.025.963 1.763 1.659 2.216.717.453 1.639.679 2.766.679 1.188 0 2.202-.226 3.041-.679.84-.476 1.475-1.322 1.905-2.537.43-1.239.594-3.002.492-5.289ZM254.495 362.59v7.861c0 3.74-.4 7.028-1.199 9.863-.798 2.835-1.935 5.217-3.41 7.147-1.475 1.905-3.226 3.347-5.254 4.323-2.007.953-4.24 1.43-6.698 1.43-2.478 0-4.732-.477-6.759-1.43-2.028-.976-3.78-2.418-5.254-4.323-1.475-1.93-2.612-4.312-3.411-7.147-.799-2.835-1.198-6.123-1.198-9.863v-7.861c0-3.74.399-7.039 1.198-9.898.799-2.859 1.926-5.241 3.38-7.147 1.475-1.906 3.226-3.347 5.254-4.324 2.028-.976 4.281-1.465 6.759-1.465 2.458 0 4.701.489 6.729 1.465 2.048.977 3.8 2.418 5.254 4.324 1.454 1.906 2.581 4.288 3.38 7.147.819 2.859 1.229 6.158 1.229 9.898Zm-10.662 7.861v-7.932c0-2.335-.123-4.324-.369-5.968-.245-1.644-.614-2.978-1.106-4.002-.491-1.024-1.106-1.775-1.843-2.251-.738-.477-1.608-.715-2.612-.715-1.044 0-1.935.238-2.673.715-.737.476-1.352 1.227-1.843 2.251-.471 1.024-.82 2.358-1.045 4.002-.225 1.644-.338 3.633-.338 5.968v7.932c0 2.311.113 4.288.338 5.932.225 1.62.574 2.954 1.045 4.002.491 1.048 1.116 1.823 1.874 2.323.758.476 1.649.715 2.673.715.983 0 1.843-.239 2.581-.715.758-.5 1.372-1.275 1.843-2.323.492-1.048.861-2.382 1.106-4.002.246-1.644.369-3.621.369-5.932ZM292.163 340.471v52.028h-10.477l-11.215-32.375v32.375h-10.507v-52.028h10.507l11.215 32.375v-32.375h10.477ZM317.019 378.67c0-.81-.071-1.536-.215-2.18a4.829 4.829 0 0 0-.768-1.858c-.369-.572-.932-1.143-1.69-1.715-.758-.596-1.772-1.215-3.041-1.858a48.554 48.554 0 0 1-4.701-2.573 22.1 22.1 0 0 1-4.148-3.395c-1.209-1.31-2.182-2.835-2.919-4.574-.737-1.762-1.106-3.811-1.106-6.146 0-2.239.369-4.252 1.106-6.039.758-1.81 1.792-3.347 3.103-4.609 1.332-1.287 2.899-2.263 4.701-2.93 1.803-.691 3.769-1.037 5.899-1.037 2.827 0 5.316.667 7.466 2.001 2.171 1.311 3.861 3.181 5.07 5.611 1.229 2.406 1.843 5.252 1.843 8.54h-10.477c0-1.31-.143-2.466-.43-3.466-.287-1.001-.737-1.787-1.352-2.359-.594-.571-1.382-.857-2.366-.857-.88 0-1.628.238-2.243.714-.594.477-1.044 1.12-1.351 1.93-.308.786-.461 1.656-.461 2.609 0 .786.153 1.5.461 2.144a6.932 6.932 0 0 0 1.259 1.75 14.477 14.477 0 0 0 1.905 1.573c.738.5 1.526.988 2.366 1.465 2.028.881 3.82 1.87 5.377 2.966 1.577 1.072 2.898 2.299 3.963 3.68 1.065 1.358 1.864 2.907 2.397 4.646.553 1.739.829 3.704.829 5.896 0 2.334-.327 4.407-.983 6.217-.635 1.811-1.567 3.347-2.796 4.61-1.229 1.239-2.714 2.18-4.455 2.823-1.72.643-3.666.965-5.837.965-1.987 0-3.943-.334-5.869-1.001a15.662 15.662 0 0 1-5.192-3.144c-1.537-1.43-2.766-3.252-3.687-5.468-.922-2.239-1.383-4.895-1.383-7.968h10.569c0 1.524.103 2.811.308 3.859.204 1.048.522 1.894.952 2.537a3.949 3.949 0 0 0 1.721 1.358c.696.262 1.556.393 2.581.393.942 0 1.669-.226 2.181-.679.533-.476.901-1.096 1.106-1.858a10.18 10.18 0 0 0 .307-2.573ZM352.414 340.471v52.028h-10.538v-52.028h10.538Zm10.846 0v9.684h-31.923v-9.684h31.923ZM367.838 340.471h15.301c2.99 0 5.581.596 7.773 1.787 2.192 1.191 3.871 2.954 5.039 5.288 1.188 2.335 1.782 5.217 1.782 8.648 0 2.978-.328 5.467-.983 7.468-.635 2.001-1.536 3.657-2.704 4.967a14.942 14.942 0 0 1-4.117 3.18l-3.411 2.323h-12.013l-.061-9.684h8.449c.963 0 1.762-.286 2.397-.857.634-.572 1.106-1.382 1.413-2.43.328-1.072.491-2.347.491-3.824 0-1.501-.153-2.787-.46-3.859-.308-1.072-.758-1.894-1.352-2.466-.574-.571-1.321-.857-2.243-.857h-4.793v42.344h-10.508v-52.028Zm19.817 52.028-7.927-23.012 11.123-.072 8.08 22.548v.536h-11.276ZM423.234 340.471h10.539v35.412c0 4.05-.625 7.361-1.874 9.934-1.25 2.549-3.001 4.419-5.254 5.61-2.253 1.191-4.916 1.787-7.989 1.787-3.051 0-5.714-.596-7.988-1.787-2.274-1.191-4.056-3.061-5.346-5.61-1.27-2.573-1.905-5.884-1.905-9.934v-35.412h10.569v35.412c0 2.144.164 3.776.492 4.895.348 1.096.87 1.835 1.567 2.216.696.381 1.567.572 2.611.572 1.066 0 1.936-.191 2.612-.572.676-.381 1.168-1.12 1.475-2.216.328-1.119.491-2.751.491-4.895v-35.412ZM460.719 374.882h10.507c.021 3.907-.635 7.242-1.966 10.006-1.311 2.739-3.165 4.812-5.561 6.217-2.397 1.406-5.203 2.109-8.419 2.109-2.601 0-4.905-.524-6.913-1.573-2.007-1.048-3.697-2.572-5.069-4.574-1.373-2.001-2.407-4.419-3.104-7.253-.696-2.859-1.044-6.099-1.044-9.72v-7.254c0-3.597.369-6.825 1.106-9.684.758-2.858 1.823-5.288 3.195-7.289 1.393-2.001 3.073-3.526 5.039-4.574 1.987-1.048 4.199-1.572 6.637-1.572 3.42 0 6.308.75 8.664 2.251 2.376 1.477 4.199 3.621 5.469 6.432 1.27 2.787 1.946 6.134 2.028 10.041H460.78c.102-2.263-.02-4.038-.369-5.324-.348-1.311-.962-2.228-1.843-2.752-.86-.548-2.007-.822-3.441-.822-.984 0-1.813.227-2.489.679-.676.453-1.219 1.203-1.628 2.251-.41 1.025-.707 2.383-.891 4.074-.185 1.691-.277 3.764-.277 6.218v7.325c0 2.501.072 4.598.215 6.289.144 1.692.41 3.061.799 4.109.41 1.025.963 1.763 1.659 2.216.717.453 1.639.679 2.765.679 1.188 0 2.202-.226 3.042-.679.84-.476 1.475-1.322 1.905-2.537.43-1.239.594-3.002.492-5.289ZM494.485 340.471v52.028h-10.539v-52.028h10.539Zm10.846 0v9.684h-31.923v-9.684h31.923ZM520.877 340.471v52.028H510.4v-52.028h10.477ZM560.021 362.59v7.861c0 3.74-.4 7.028-1.199 9.863-.798 2.835-1.935 5.217-3.41 7.147-1.475 1.905-3.226 3.347-5.254 4.323-2.007.953-4.24 1.43-6.698 1.43-2.478 0-4.731-.477-6.759-1.43-2.028-.976-3.779-2.418-5.254-4.323-1.475-1.93-2.612-4.312-3.411-7.147-.799-2.835-1.198-6.123-1.198-9.863v-7.861c0-3.74.399-7.039 1.198-9.898.799-2.859 1.926-5.241 3.38-7.147 1.475-1.906 3.226-3.347 5.254-4.324 2.028-.976 4.281-1.465 6.759-1.465 2.458 0 4.701.489 6.729 1.465 2.048.977 3.8 2.418 5.254 4.324 1.454 1.906 2.581 4.288 3.38 7.147.819 2.859 1.229 6.158 1.229 9.898Zm-10.662 7.861v-7.932c0-2.335-.123-4.324-.368-5.968-.246-1.644-.615-2.978-1.107-4.002-.491-1.024-1.106-1.775-1.843-2.251-.737-.477-1.608-.715-2.612-.715-1.044 0-1.935.238-2.673.715-.737.476-1.352 1.227-1.843 2.251-.471 1.024-.819 2.358-1.045 4.002-.225 1.644-.338 3.633-.338 5.968v7.932c0 2.311.113 4.288.338 5.932.226 1.62.574 2.954 1.045 4.002.491 1.048 1.116 1.823 1.874 2.323.758.476 1.649.715 2.673.715.983 0 1.844-.239 2.581-.715.758-.5 1.372-1.275 1.843-2.323.492-1.048.861-2.382 1.107-4.002.245-1.644.368-3.621.368-5.932ZM597.689 340.471v52.028h-10.477l-11.214-32.375v32.375H565.49v-52.028h10.508l11.214 32.375v-32.375h10.477ZM622.545 378.67c0-.81-.071-1.536-.215-2.18a4.829 4.829 0 0 0-.768-1.858c-.369-.572-.932-1.143-1.69-1.715-.758-.596-1.771-1.215-3.041-1.858a48.554 48.554 0 0 1-4.701-2.573 22.131 22.131 0 0 1-4.148-3.395c-1.209-1.31-2.182-2.835-2.919-4.574-.737-1.762-1.106-3.811-1.106-6.146 0-2.239.369-4.252 1.106-6.039.758-1.81 1.792-3.347 3.103-4.609 1.332-1.287 2.899-2.263 4.701-2.93 1.803-.691 3.769-1.037 5.899-1.037 2.827 0 5.316.667 7.466 2.001 2.172 1.311 3.861 3.181 5.07 5.611 1.229 2.406 1.843 5.252 1.843 8.54h-10.477c0-1.31-.143-2.466-.43-3.466-.287-1.001-.737-1.787-1.352-2.359-.594-.571-1.382-.857-2.366-.857-.88 0-1.628.238-2.242.714-.594.477-1.045 1.12-1.352 1.93-.308.786-.461 1.656-.461 2.609 0 .786.153 1.5.461 2.144a6.932 6.932 0 0 0 1.259 1.75 14.477 14.477 0 0 0 1.905 1.573c.738.5 1.526.988 2.366 1.465 2.028.881 3.82 1.87 5.377 2.966 1.577 1.072 2.898 2.299 3.963 3.68 1.066 1.358 1.864 2.907 2.397 4.646.553 1.739.83 3.704.83 5.896 0 2.334-.328 4.407-.984 6.217-.635 1.811-1.567 3.347-2.796 4.61-1.229 1.239-2.714 2.18-4.455 2.823-1.72.643-3.666.965-5.837.965-1.987 0-3.943-.334-5.869-1.001a15.662 15.662 0 0 1-5.192-3.144c-1.537-1.43-2.766-3.252-3.687-5.468-.922-2.239-1.383-4.895-1.383-7.968h10.569c0 1.524.103 2.811.308 3.859.204 1.048.522 1.894.952 2.537a3.949 3.949 0 0 0 1.721 1.358c.696.262 1.556.393 2.581.393.942 0 1.669-.226 2.181-.679.533-.476.901-1.096 1.106-1.858a10.18 10.18 0 0 0 .307-2.573Z"/><g clip-path="url(#a)"><path fill="#FFF" d="m442.897 142.498 103.545 152.849H445.658L343.493 145.258 439.79 0h97.678l-94.571 142.498ZM.411 399.202v-37.609c0-15.181 1.035-30.708 0-45.544 10.7-.69 21.054-3.45 30.718-7.591 28.648-13.111 46.941-41.403 55.57-70.731 1.035-3.105 1.726-6.556 2.416-9.661 4.142-20.357 2.761-41.404 2.761-62.106V0h93.192v173.551c0 13.111.345 26.222 0 39.334-1.036 41.403-14.497 78.667-39.693 111.445-7.593 10.006-15.877 18.976-24.851 27.602-.69.69-1.035 1.035-1.726 1.38-7.248 6.556-14.841 12.422-23.125 17.597-14.151 8.971-30.028 15.526-45.905 20.357-8.284 2.415-16.568 4.485-24.851 5.865-4.142.691-8.63 1.381-12.77 2.071H.41ZM177.819 93.504H.411V0h177.408m79.385 93.504V0h93.882l-62.818 93.504h-31.064Zm16.568 90.743c2.071-2.07 4.487-3.45 7.938-3.45 2.761 0 5.178 1.035 7.248 3.105 2.071 2.07 2.762 4.485 2.762 7.246 0 3.105-.691 5.52-2.071 7.59-1.381 2.07-3.452 3.796-6.213 5.866l-6.213 3.795c-4.487-6.21-6.903-11.386-6.903-15.526.345-3.451 1.381-6.211 3.452-8.626Zm-6.213 82.117c-2.761-3.105-4.142-6.9-4.142-11.386 0-5.52 1.726-10.351 5.177-14.491l.691-.69 24.16 27.603c-4.832 2.415-10.009 3.795-15.531 3.795-4.142 0-7.594-1.725-10.355-4.831Zm-12.425-43.819c-9.32 6.556-15.187 12.422-18.639 17.597-3.451 5.175-4.832 10.696-4.832 16.907 0 11.386 4.142 20.356 12.08 27.602 7.939 6.901 18.639 10.351 31.755 10.351 6.903 0 12.77-.69 18.293-2.07 5.522-1.725 10.699-3.795 15.877-6.901l6.212 7.246h34.516l-20.364-23.462c8.283-11.041 12.425-25.533 12.425-43.474h-26.231c0 7.935-1.726 15.526-5.178 22.082l-20.709-23.807 6.903-4.831c12.771-8.971 18.984-18.977 18.984-30.363 0-9.315-3.452-16.906-10.01-23.117-6.558-6.21-14.841-9.316-25.196-9.316-11.39 0-20.364 3.451-27.612 10.006-7.248 6.556-10.7 15.527-10.7 26.223 0 4.83 1.035 9.661 3.106 14.491 2.071 4.83 6.213 9.661 9.32 14.836Z"/></g><defs><clipPath id="a"><path fill="#fff" d="M0 0h545.709v400H0z" transform="translate(.41)"/></clipPath></defs></svg>